<?xml version="1.0" encoding="utf-8" standalone="no"?>
<!DOCTYPE svg PUBLIC "-//W3C//DTD SVG 1.1//EN"
  "http://www.w3.org/Graphics/SVG/1.1/DTD/svg11.dtd">
<svg xmlns:xlink="http://www.w3.org/1999/xlink" width="720pt" height="504pt" viewBox="0 0 720 504" xmlns="http://www.w3.org/2000/svg" version="1.1">
 <metadata>
  <rdf:RDF xmlns:dc="http://purl.org/dc/elements/1.1/" xmlns:cc="http://creativecommons.org/ns#" xmlns:rdf="http://www.w3.org/1999/02/22-rdf-syntax-ns#">
   <cc:Work>
    <dc:type rdf:resource="http://purl.org/dc/dcmitype/StillImage"/>
    <dc:date>2024-05-28T12:31:01.356547</dc:date>
    <dc:format>image/svg+xml</dc:format>
    <dc:creator>
     <cc:Agent>
      <dc:title>Matplotlib v3.6.3, https://matplotlib.org/</dc:title>
     </cc:Agent>
    </dc:creator>
   </cc:Work>
  </rdf:RDF>
 </metadata>
 <defs>
  <style type="text/css">*{stroke-linejoin: round; stroke-linecap: butt}</style>
 </defs>
 <g id="figure_1">
  <g id="patch_1">
   <path d="M 0 504 
L 720 504 
L 720 0 
L 0 0 
z
" style="fill: #ffffff"/>
  </g>
  <g id="axes_1">
   <g id="patch_2">
    <path d="M 60.14 451.96 
L 704.88 451.96 
L 704.88 15.12 
L 60.14 15.12 
z
" style="fill: #ffffff"/>
   </g>
   <g id="PathCollection_1">
    <defs>
     <path id="mf66df879dd" d="M 0 3 
C 0.795609 3 1.55874 2.683901 2.12132 2.12132 
C 2.683901 1.55874 3 0.795609 3 0 
C 3 -0.795609 2.683901 -1.55874 2.12132 -2.12132 
C 1.55874 -2.683901 0.795609 -3 0 -3 
C -0.795609 -3 -1.55874 -2.683901 -2.12132 -2.12132 
C -2.683901 -1.55874 -3 -0.795609 -3 0 
C -3 0.795609 -2.683901 1.55874 -2.12132 2.12132 
C -1.55874 2.683901 -0.795609 3 0 3 
z
" style="stroke: #000000"/>
    </defs>
    <g clip-path="url(#p65e8c65b6c)">
     <use xlink:href="#mf66df879dd" x="60.783453" y="451.524032" style="stroke: #000000"/>
     <use xlink:href="#mf66df879dd" x="94.649405" y="430.053162" style="stroke: #000000"/>
     <use xlink:href="#mf66df879dd" x="128.515358" y="387.081788" style="stroke: #000000"/>
     <use xlink:href="#mf66df879dd" x="162.38131" y="354.715695" style="stroke: #000000"/>
     <use xlink:href="#mf66df879dd" x="196.247262" y="336.0273" style="stroke: #000000"/>
     <use xlink:href="#mf66df879dd" x="230.113215" y="320.216692" style="stroke: #000000"/>
     <use xlink:href="#mf66df879dd" x="263.979167" y="300.395765" style="stroke: #000000"/>
     <use xlink:href="#mf66df879dd" x="297.845119" y="265.873534" style="stroke: #000000"/>
     <use xlink:href="#mf66df879dd" x="331.711072" y="230.732175" style="stroke: #000000"/>
     <use xlink:href="#mf66df879dd" x="365.577024" y="211.339752" style="stroke: #000000"/>
     <use xlink:href="#mf66df879dd" x="399.442976" y="185.836136" style="stroke: #000000"/>
     <use xlink:href="#mf66df879dd" x="433.308928" y="174.077497" style="stroke: #000000"/>
     <use xlink:href="#mf66df879dd" x="467.174881" y="147.28196" style="stroke: #000000"/>
     <use xlink:href="#mf66df879dd" x="501.040833" y="133.238232" style="stroke: #000000"/>
     <use xlink:href="#mf66df879dd" x="534.906785" y="112.066114" style="stroke: #000000"/>
     <use xlink:href="#mf66df879dd" x="568.772738" y="108.148703" style="stroke: #000000"/>
     <use xlink:href="#mf66df879dd" x="602.63869" y="97.557038" style="stroke: #000000"/>
     <use xlink:href="#mf66df879dd" x="636.504642" y="79.94511" style="stroke: #000000"/>
     <use xlink:href="#mf66df879dd" x="670.370595" y="55.397819" style="stroke: #000000"/>
     <use xlink:href="#mf66df879dd" x="704.236547" y="28.6167" style="stroke: #000000"/>
    </g>
   </g>
   <g id="PathCollection_2">
    <defs>
     <path id="ma19c0f595f" d="M 0 -3 
L -0.673542 -0.927051 
L -2.85317 -0.927051 
L -1.089814 0.354102 
L -1.763356 2.427051 
L -0 1.145898 
L 1.763356 2.427051 
L 1.089814 0.354102 
L 2.85317 -0.927051 
L 0.673542 -0.927051 
z
" style="stroke: #000000"/>
    </defs>
    <g clip-path="url(#p65e8c65b6c)">
     <use xlink:href="#ma19c0f595f" x="60.783453" y="451.258119" style="stroke: #000000"/>
     <use xlink:href="#ma19c0f595f" x="94.649405" y="428.849345" style="stroke: #000000"/>
     <use xlink:href="#ma19c0f595f" x="128.515358" y="387.346099" style="stroke: #000000"/>
     <use xlink:href="#ma19c0f595f" x="162.38131" y="396.978235" style="stroke: #000000"/>
     <use xlink:href="#ma19c0f595f" x="196.247262" y="384.751846" style="stroke: #000000"/>
     <use xlink:href="#ma19c0f595f" x="230.113215" y="359.152918" style="stroke: #000000"/>
     <use xlink:href="#ma19c0f595f" x="263.979167" y="345.931757" style="stroke: #000000"/>
     <use xlink:href="#ma19c0f595f" x="297.845119" y="321.017635" style="stroke: #000000"/>
     <use xlink:href="#ma19c0f595f" x="331.711072" y="301.119817" style="stroke: #000000"/>
     <use xlink:href="#ma19c0f595f" x="365.577024" y="279.43029" style="stroke: #000000"/>
     <use xlink:href="#ma19c0f595f" x="399.442976" y="273.666706" style="stroke: #000000"/>
     <use xlink:href="#ma19c0f595f" x="433.308928" y="263.225618" style="stroke: #000000"/>
     <use xlink:href="#ma19c0f595f" x="467.174881" y="249.64163" style="stroke: #000000"/>
     <use xlink:href="#ma19c0f595f" x="501.040833" y="230.763412" style="stroke: #000000"/>
     <use xlink:href="#ma19c0f595f" x="534.906785" y="203.231008" style="stroke: #000000"/>
     <use xlink:href="#ma19c0f595f" x="568.772738" y="174.75109" style="stroke: #000000"/>
     <use xlink:href="#ma19c0f595f" x="602.63869" y="151.013552" style="stroke: #000000"/>
     <use xlink:href="#ma19c0f595f" x="636.504642" y="156.71306" style="stroke: #000000"/>
     <use xlink:href="#ma19c0f595f" x="670.370595" y="127.980043" style="stroke: #000000"/>
     <use xlink:href="#ma19c0f595f" x="704.236547" y="89.695785" style="stroke: #000000"/>
    </g>
   </g>
   <g id="matplotlib.axis_1">
    <g id="xtick_1">
     <g id="line2d_1">
      <defs>
       <path id="m686c92059f" d="M 0 0 
L 0 3.5 
" style="stroke: #000000; stroke-width: 0.8"/>
      </defs>
      <g>
       <use xlink:href="#m686c92059f" x="60.783453" y="451.96" style="stroke: #000000; stroke-width: 0.8"/>
      </g>
     </g>
     <g id="text_1">
      <!-- 0 -->
      <g transform="translate(57.283453 468.68125) scale(0.14 -0.14)">
       <defs>
        <path id="TimesNewRomanPSMT-30" d="M 231 2094 
Q 231 2819 450 3342 
Q 669 3866 1031 4122 
Q 1313 4325 1613 4325 
Q 2100 4325 2488 3828 
Q 2972 3213 2972 2159 
Q 2972 1422 2759 906 
Q 2547 391 2217 158 
Q 1888 -75 1581 -75 
Q 975 -75 572 641 
Q 231 1244 231 2094 
z
M 844 2016 
Q 844 1141 1059 588 
Q 1238 122 1591 122 
Q 1759 122 1940 273 
Q 2122 425 2216 781 
Q 2359 1319 2359 2297 
Q 2359 3022 2209 3506 
Q 2097 3866 1919 4016 
Q 1791 4119 1609 4119 
Q 1397 4119 1231 3928 
Q 1006 3669 925 3112 
Q 844 2556 844 2016 
z
" transform="scale(0.015625)"/>
       </defs>
       <use xlink:href="#TimesNewRomanPSMT-30"/>
      </g>
     </g>
    </g>
    <g id="xtick_2">
     <g id="line2d_2">
      <g>
       <use xlink:href="#m686c92059f" x="145.448334" y="451.96" style="stroke: #000000; stroke-width: 0.8"/>
      </g>
     </g>
     <g id="text_2">
      <!-- 25000 -->
      <g transform="translate(127.948334 468.68125) scale(0.14 -0.14)">
       <defs>
        <path id="TimesNewRomanPSMT-32" d="M 2934 816 
L 2638 0 
L 138 0 
L 138 116 
Q 1241 1122 1691 1759 
Q 2141 2397 2141 2925 
Q 2141 3328 1894 3587 
Q 1647 3847 1303 3847 
Q 991 3847 742 3664 
Q 494 3481 375 3128 
L 259 3128 
Q 338 3706 661 4015 
Q 984 4325 1469 4325 
Q 1984 4325 2329 3994 
Q 2675 3663 2675 3213 
Q 2675 2891 2525 2569 
Q 2294 2063 1775 1497 
Q 997 647 803 472 
L 1909 472 
Q 2247 472 2383 497 
Q 2519 522 2628 598 
Q 2738 675 2819 816 
L 2934 816 
z
" transform="scale(0.015625)"/>
        <path id="TimesNewRomanPSMT-35" d="M 2778 4238 
L 2534 3706 
L 1259 3706 
L 981 3138 
Q 1809 3016 2294 2522 
Q 2709 2097 2709 1522 
Q 2709 1188 2573 903 
Q 2438 619 2231 419 
Q 2025 219 1772 97 
Q 1413 -75 1034 -75 
Q 653 -75 479 54 
Q 306 184 306 341 
Q 306 428 378 495 
Q 450 563 559 563 
Q 641 563 702 538 
Q 763 513 909 409 
Q 1144 247 1384 247 
Q 1750 247 2026 523 
Q 2303 800 2303 1197 
Q 2303 1581 2056 1914 
Q 1809 2247 1375 2428 
Q 1034 2569 447 2591 
L 1259 4238 
L 2778 4238 
z
" transform="scale(0.015625)"/>
       </defs>
       <use xlink:href="#TimesNewRomanPSMT-32"/>
       <use xlink:href="#TimesNewRomanPSMT-35" x="50"/>
       <use xlink:href="#TimesNewRomanPSMT-30" x="100"/>
       <use xlink:href="#TimesNewRomanPSMT-30" x="150"/>
       <use xlink:href="#TimesNewRomanPSMT-30" x="200"/>
      </g>
     </g>
    </g>
    <g id="xtick_3">
     <g id="line2d_3">
      <g>
       <use xlink:href="#m686c92059f" x="230.113215" y="451.96" style="stroke: #000000; stroke-width: 0.8"/>
      </g>
     </g>
     <g id="text_3">
      <!-- 50000 -->
      <g transform="translate(212.613215 468.68125) scale(0.14 -0.14)">
       <use xlink:href="#TimesNewRomanPSMT-35"/>
       <use xlink:href="#TimesNewRomanPSMT-30" x="50"/>
       <use xlink:href="#TimesNewRomanPSMT-30" x="100"/>
       <use xlink:href="#TimesNewRomanPSMT-30" x="150"/>
       <use xlink:href="#TimesNewRomanPSMT-30" x="200"/>
      </g>
     </g>
    </g>
    <g id="xtick_4">
     <g id="line2d_4">
      <g>
       <use xlink:href="#m686c92059f" x="314.778095" y="451.96" style="stroke: #000000; stroke-width: 0.8"/>
      </g>
     </g>
     <g id="text_4">
      <!-- 75000 -->
      <g transform="translate(297.278095 468.68125) scale(0.14 -0.14)">
       <defs>
        <path id="TimesNewRomanPSMT-37" d="M 644 4238 
L 2916 4238 
L 2916 4119 
L 1503 -88 
L 1153 -88 
L 2419 3728 
L 1253 3728 
Q 900 3728 750 3644 
Q 488 3500 328 3200 
L 238 3234 
L 644 4238 
z
" transform="scale(0.015625)"/>
       </defs>
       <use xlink:href="#TimesNewRomanPSMT-37"/>
       <use xlink:href="#TimesNewRomanPSMT-35" x="50"/>
       <use xlink:href="#TimesNewRomanPSMT-30" x="100"/>
       <use xlink:href="#TimesNewRomanPSMT-30" x="150"/>
       <use xlink:href="#TimesNewRomanPSMT-30" x="200"/>
      </g>
     </g>
    </g>
    <g id="xtick_5">
     <g id="line2d_5">
      <g>
       <use xlink:href="#m686c92059f" x="399.442976" y="451.96" style="stroke: #000000; stroke-width: 0.8"/>
      </g>
     </g>
     <g id="text_5">
      <!-- 100000 -->
      <g transform="translate(378.442976 468.68125) scale(0.14 -0.14)">
       <defs>
        <path id="TimesNewRomanPSMT-31" d="M 750 3822 
L 1781 4325 
L 1884 4325 
L 1884 747 
Q 1884 391 1914 303 
Q 1944 216 2037 169 
Q 2131 122 2419 116 
L 2419 0 
L 825 0 
L 825 116 
Q 1125 122 1212 167 
Q 1300 213 1334 289 
Q 1369 366 1369 747 
L 1369 3034 
Q 1369 3497 1338 3628 
Q 1316 3728 1258 3775 
Q 1200 3822 1119 3822 
Q 1003 3822 797 3725 
L 750 3822 
z
" transform="scale(0.015625)"/>
       </defs>
       <use xlink:href="#TimesNewRomanPSMT-31"/>
       <use xlink:href="#TimesNewRomanPSMT-30" x="50"/>
       <use xlink:href="#TimesNewRomanPSMT-30" x="100"/>
       <use xlink:href="#TimesNewRomanPSMT-30" x="150"/>
       <use xlink:href="#TimesNewRomanPSMT-30" x="200"/>
       <use xlink:href="#TimesNewRomanPSMT-30" x="250"/>
      </g>
     </g>
    </g>
    <g id="xtick_6">
     <g id="line2d_6">
      <g>
       <use xlink:href="#m686c92059f" x="484.107857" y="451.96" style="stroke: #000000; stroke-width: 0.8"/>
      </g>
     </g>
     <g id="text_6">
      <!-- 125000 -->
      <g transform="translate(463.107857 468.68125) scale(0.14 -0.14)">
       <use xlink:href="#TimesNewRomanPSMT-31"/>
       <use xlink:href="#TimesNewRomanPSMT-32" x="50"/>
       <use xlink:href="#TimesNewRomanPSMT-35" x="100"/>
       <use xlink:href="#TimesNewRomanPSMT-30" x="150"/>
       <use xlink:href="#TimesNewRomanPSMT-30" x="200"/>
       <use xlink:href="#TimesNewRomanPSMT-30" x="250"/>
      </g>
     </g>
    </g>
    <g id="xtick_7">
     <g id="line2d_7">
      <g>
       <use xlink:href="#m686c92059f" x="568.772738" y="451.96" style="stroke: #000000; stroke-width: 0.8"/>
      </g>
     </g>
     <g id="text_7">
      <!-- 150000 -->
      <g transform="translate(547.772738 468.68125) scale(0.14 -0.14)">
       <use xlink:href="#TimesNewRomanPSMT-31"/>
       <use xlink:href="#TimesNewRomanPSMT-35" x="50"/>
       <use xlink:href="#TimesNewRomanPSMT-30" x="100"/>
       <use xlink:href="#TimesNewRomanPSMT-30" x="150"/>
       <use xlink:href="#TimesNewRomanPSMT-30" x="200"/>
       <use xlink:href="#TimesNewRomanPSMT-30" x="250"/>
      </g>
     </g>
    </g>
    <g id="xtick_8">
     <g id="line2d_8">
      <g>
       <use xlink:href="#m686c92059f" x="653.437618" y="451.96" style="stroke: #000000; stroke-width: 0.8"/>
      </g>
     </g>
     <g id="text_8">
      <!-- 175000 -->
      <g transform="translate(632.437618 468.68125) scale(0.14 -0.14)">
       <use xlink:href="#TimesNewRomanPSMT-31"/>
       <use xlink:href="#TimesNewRomanPSMT-37" x="50"/>
       <use xlink:href="#TimesNewRomanPSMT-35" x="100"/>
       <use xlink:href="#TimesNewRomanPSMT-30" x="150"/>
       <use xlink:href="#TimesNewRomanPSMT-30" x="200"/>
       <use xlink:href="#TimesNewRomanPSMT-30" x="250"/>
      </g>
     </g>
    </g>
    <g id="text_9">
     <!-- Количество строк в таблице -->
     <g transform="translate(298.873125 485.397187) scale(0.14 -0.14)">
      <defs>
       <path id="TimesNewRomanPSMT-41a" d="M 4247 116 
L 4247 0 
L 3153 0 
Q 2975 284 2403 1073 
Q 1831 1863 1706 1948 
Q 1581 2034 1328 2038 
L 1328 772 
Q 1328 353 1436 240 
Q 1544 128 1941 116 
L 1941 0 
L 116 0 
L 116 116 
Q 506 128 617 239 
Q 728 350 728 772 
L 728 3466 
Q 728 3884 618 3996 
Q 509 4109 116 4122 
L 116 4238 
L 1941 4238 
L 1941 4122 
Q 1544 4109 1436 3996 
Q 1328 3884 1328 3466 
L 1328 2284 
Q 1669 2288 1800 2330 
Q 1931 2372 2095 2522 
Q 2259 2672 2354 2845 
Q 2450 3019 2600 3416 
Q 2741 3788 2830 3933 
Q 2919 4078 3116 4183 
Q 3313 4288 3584 4288 
Q 4066 4288 4066 3950 
Q 4066 3831 3970 3743 
Q 3875 3656 3753 3656 
Q 3666 3656 3459 3756 
Q 3278 3847 3206 3847 
Q 3106 3847 3034 3742 
Q 2963 3638 2806 3209 
Q 2506 2409 2041 2194 
Q 2325 2144 2828 1416 
Q 3363 644 3613 384 
Q 3863 125 4247 116 
z
" transform="scale(0.015625)"/>
       <path id="TimesNewRomanPSMT-43e" d="M 1600 2947 
Q 2250 2947 2644 2453 
Q 2978 2031 2978 1484 
Q 2978 1100 2793 706 
Q 2609 313 2286 112 
Q 1963 -88 1566 -88 
Q 919 -88 538 428 
Q 216 863 216 1403 
Q 216 1797 411 2186 
Q 606 2575 925 2761 
Q 1244 2947 1600 2947 
z
M 1503 2744 
Q 1338 2744 1170 2645 
Q 1003 2547 900 2300 
Q 797 2053 797 1666 
Q 797 1041 1045 587 
Q 1294 134 1700 134 
Q 2003 134 2200 384 
Q 2397 634 2397 1244 
Q 2397 2006 2069 2444 
Q 1847 2744 1503 2744 
z
" transform="scale(0.015625)"/>
       <path id="TimesNewRomanPSMT-43b" d="M 494 2863 
L 3053 2863 
L 3053 2744 
Q 2841 2744 2770 2701 
Q 2700 2659 2659 2596 
Q 2619 2534 2619 2191 
L 2619 672 
Q 2619 341 2653 277 
Q 2688 213 2761 164 
Q 2834 116 3053 116 
L 3053 0 
L 1572 0 
L 1572 116 
Q 1813 116 1905 141 
Q 1997 166 2050 261 
Q 2103 356 2103 672 
L 2103 2659 
L 1150 2659 
L 1150 1453 
Q 1150 769 1089 492 
Q 1028 216 848 83 
Q 669 -50 438 -50 
Q 38 -50 38 281 
Q 38 394 102 466 
Q 166 538 269 538 
Q 378 538 472 447 
Q 594 328 656 328 
Q 797 328 861 564 
Q 925 800 925 1391 
L 925 2022 
Q 925 2509 854 2615 
Q 784 2722 494 2744 
L 494 2863 
z
" transform="scale(0.015625)"/>
       <path id="TimesNewRomanPSMT-438" d="M 1094 881 
L 2331 2313 
Q 2325 2553 2240 2647 
Q 2156 2741 1950 2744 
L 1950 2863 
L 3281 2863 
L 3281 2744 
Q 3072 2744 3000 2701 
Q 2928 2659 2887 2596 
Q 2847 2534 2847 2191 
L 2847 672 
Q 2847 341 2881 277 
Q 2916 213 2989 164 
Q 3063 116 3281 116 
L 3281 0 
L 1897 0 
L 1897 116 
Q 2156 116 2243 211 
Q 2331 306 2331 672 
L 2331 2019 
L 1094 584 
Q 1100 319 1169 219 
Q 1238 119 1466 116 
L 1466 0 
L 144 0 
L 144 116 
Q 422 116 500 217 
Q 578 319 578 672 
L 578 2191 
Q 578 2525 543 2586 
Q 509 2647 437 2695 
Q 366 2744 144 2744 
L 144 2863 
L 1528 2863 
L 1528 2744 
Q 1319 2744 1247 2701 
Q 1175 2659 1134 2596 
Q 1094 2534 1094 2191 
L 1094 881 
z
" transform="scale(0.015625)"/>
       <path id="TimesNewRomanPSMT-447" d="M 2125 1578 
L 2125 2191 
Q 2125 2488 2095 2573 
Q 2066 2659 1973 2701 
Q 1881 2744 1694 2744 
L 1694 2863 
L 3078 2863 
L 3078 2744 
Q 2866 2744 2795 2701 
Q 2725 2659 2684 2596 
Q 2644 2534 2644 2191 
L 2644 672 
Q 2644 375 2673 289 
Q 2703 203 2795 159 
Q 2888 116 3078 116 
L 3078 0 
L 1625 0 
L 1625 116 
Q 1875 125 1951 148 
Q 2028 172 2076 269 
Q 2125 366 2125 672 
L 2125 1372 
Q 1666 1138 1156 1138 
Q 878 1138 725 1208 
Q 572 1278 531 1370 
Q 491 1463 491 1669 
L 491 2191 
Q 491 2469 466 2556 
Q 441 2644 353 2694 
Q 266 2744 94 2744 
L 94 2863 
L 1441 2863 
L 1441 2744 
Q 1231 2744 1159 2701 
Q 1088 2659 1047 2596 
Q 1006 2534 1006 2191 
L 1006 1838 
Q 1006 1631 1036 1559 
Q 1066 1488 1173 1439 
Q 1281 1391 1478 1391 
Q 1819 1391 2125 1578 
z
" transform="scale(0.015625)"/>
       <path id="TimesNewRomanPSMT-435" d="M 681 1784 
Q 678 1147 991 784 
Q 1303 422 1725 422 
Q 2006 422 2214 576 
Q 2422 731 2563 1106 
L 2659 1044 
Q 2594 616 2278 264 
Q 1963 -88 1488 -88 
Q 972 -88 605 314 
Q 238 716 238 1394 
Q 238 2128 614 2539 
Q 991 2950 1559 2950 
Q 2041 2950 2350 2633 
Q 2659 2316 2659 1784 
L 681 1784 
z
M 681 1966 
L 2006 1966 
Q 1991 2241 1941 2353 
Q 1863 2528 1708 2628 
Q 1553 2728 1384 2728 
Q 1125 2728 920 2526 
Q 716 2325 681 1966 
z
" transform="scale(0.015625)"/>
       <path id="TimesNewRomanPSMT-441" d="M 2631 1088 
Q 2516 522 2178 217 
Q 1841 -88 1431 -88 
Q 944 -88 581 321 
Q 219 731 219 1428 
Q 219 2103 620 2525 
Q 1022 2947 1584 2947 
Q 2006 2947 2278 2723 
Q 2550 2500 2550 2259 
Q 2550 2141 2473 2067 
Q 2397 1994 2259 1994 
Q 2075 1994 1981 2113 
Q 1928 2178 1911 2362 
Q 1894 2547 1784 2644 
Q 1675 2738 1481 2738 
Q 1169 2738 978 2506 
Q 725 2200 725 1697 
Q 725 1184 976 792 
Q 1228 400 1656 400 
Q 1963 400 2206 609 
Q 2378 753 2541 1131 
L 2631 1088 
z
" transform="scale(0.015625)"/>
       <path id="TimesNewRomanPSMT-442" d="M 156 2863 
L 2631 2863 
L 2756 2088 
L 2616 2088 
Q 2578 2322 2490 2450 
Q 2403 2578 2290 2618 
Q 2178 2659 1906 2659 
L 1656 2659 
L 1656 672 
Q 1656 353 1695 267 
Q 1734 181 1821 153 
Q 1909 125 2222 116 
L 2222 0 
L 666 0 
L 666 116 
Q 966 122 1052 212 
Q 1138 303 1138 672 
L 1138 2659 
L 881 2659 
Q 613 2659 516 2626 
Q 419 2594 330 2470 
Q 241 2347 178 2088 
L 38 2088 
L 156 2863 
z
" transform="scale(0.015625)"/>
       <path id="TimesNewRomanPSMT-432" d="M 2016 1513 
Q 2800 1350 2800 778 
Q 2800 388 2473 194 
Q 2147 0 1563 0 
L 150 0 
L 150 116 
Q 428 116 501 220 
Q 575 325 575 672 
L 575 2191 
Q 575 2528 542 2587 
Q 509 2647 439 2695 
Q 369 2744 150 2744 
L 150 2863 
L 1469 2863 
Q 1850 2863 2086 2803 
Q 2322 2744 2473 2569 
Q 2625 2394 2625 2144 
Q 2625 1656 2016 1513 
z
M 1094 1584 
Q 1231 1581 1259 1581 
Q 1688 1581 1878 1745 
Q 2069 1909 2069 2144 
Q 2069 2416 1875 2537 
Q 1681 2659 1256 2659 
L 1094 2659 
L 1094 1584 
z
M 1094 253 
Q 1250 203 1466 203 
Q 1838 203 2019 365 
Q 2200 528 2200 784 
Q 2200 1072 1965 1225 
Q 1731 1378 1316 1378 
Q 1213 1378 1094 1372 
L 1094 253 
z
" transform="scale(0.015625)"/>
       <path id="TimesNewRomanPSMT-20" transform="scale(0.015625)"/>
       <path id="TimesNewRomanPSMT-440" d="M -6 2578 
L 875 2934 
L 994 2934 
L 994 2266 
Q 1216 2644 1439 2795 
Q 1663 2947 1909 2947 
Q 2341 2947 2628 2609 
Q 2981 2197 2981 1534 
Q 2981 794 2556 309 
Q 2206 -88 1675 -88 
Q 1444 -88 1275 -22 
Q 1150 25 994 166 
L 994 -706 
Q 994 -1000 1030 -1079 
Q 1066 -1159 1155 -1206 
Q 1244 -1253 1478 -1253 
L 1478 -1369 
L -22 -1369 
L -22 -1253 
L 56 -1253 
Q 228 -1256 350 -1188 
Q 409 -1153 442 -1076 
Q 475 -1000 475 -688 
L 475 2019 
Q 475 2297 450 2372 
Q 425 2447 370 2484 
Q 316 2522 222 2522 
Q 147 2522 31 2478 
L -6 2578 
z
M 994 2081 
L 994 1013 
Q 994 666 1022 556 
Q 1066 375 1236 237 
Q 1406 100 1666 100 
Q 1978 100 2172 344 
Q 2425 663 2425 1241 
Q 2425 1897 2138 2250 
Q 1938 2494 1663 2494 
Q 1513 2494 1366 2419 
Q 1253 2363 994 2081 
z
" transform="scale(0.015625)"/>
       <path id="TimesNewRomanPSMT-43a" d="M 3072 0 
L 2228 0 
Q 1834 572 1516 1172 
Q 1441 1309 1380 1376 
Q 1319 1444 1213 1444 
Q 1175 1444 1094 1438 
L 1094 672 
Q 1094 363 1130 277 
Q 1166 191 1259 153 
Q 1353 116 1575 116 
L 1575 0 
L 144 0 
L 144 116 
Q 422 116 500 217 
Q 578 319 578 672 
L 578 2191 
Q 578 2525 543 2586 
Q 509 2647 437 2695 
Q 366 2744 144 2744 
L 144 2863 
L 1575 2863 
L 1575 2744 
Q 1316 2744 1255 2706 
Q 1194 2669 1144 2614 
Q 1094 2559 1094 2191 
L 1094 1628 
Q 1166 1622 1191 1622 
Q 1381 1622 1548 1730 
Q 1716 1838 1847 2188 
Q 1969 2519 2048 2634 
Q 2128 2750 2270 2823 
Q 2413 2897 2569 2897 
Q 2738 2897 2838 2815 
Q 2938 2734 2938 2603 
Q 2938 2494 2866 2417 
Q 2794 2341 2666 2341 
Q 2597 2341 2494 2378 
Q 2363 2425 2294 2425 
Q 2150 2425 2056 2178 
Q 1950 1894 1900 1811 
Q 1850 1728 1709 1591 
Q 1806 1563 1920 1447 
Q 2034 1331 2344 788 
Q 2591 353 2714 237 
Q 2838 122 3072 116 
L 3072 0 
z
" transform="scale(0.015625)"/>
       <path id="TimesNewRomanPSMT-430" d="M 1822 413 
Q 1381 72 1269 19 
Q 1100 -59 909 -59 
Q 613 -59 420 144 
Q 228 347 228 678 
Q 228 888 322 1041 
Q 450 1253 767 1440 
Q 1084 1628 1822 1897 
L 1822 2009 
Q 1822 2438 1686 2597 
Q 1550 2756 1291 2756 
Q 1094 2756 978 2650 
Q 859 2544 859 2406 
L 866 2225 
Q 866 2081 792 2003 
Q 719 1925 600 1925 
Q 484 1925 411 2006 
Q 338 2088 338 2228 
Q 338 2497 613 2722 
Q 888 2947 1384 2947 
Q 1766 2947 2009 2819 
Q 2194 2722 2281 2516 
Q 2338 2381 2338 1966 
L 2338 994 
Q 2338 584 2353 492 
Q 2369 400 2405 369 
Q 2441 338 2488 338 
Q 2538 338 2575 359 
Q 2641 400 2828 588 
L 2828 413 
Q 2478 -56 2159 -56 
Q 2006 -56 1915 50 
Q 1825 156 1822 413 
z
M 1822 616 
L 1822 1706 
Q 1350 1519 1213 1441 
Q 966 1303 859 1153 
Q 753 1003 753 825 
Q 753 600 887 451 
Q 1022 303 1197 303 
Q 1434 303 1822 616 
z
" transform="scale(0.015625)"/>
       <path id="TimesNewRomanPSMT-431" d="M 469 2044 
Q 828 2947 1681 2947 
Q 2278 2947 2658 2500 
Q 3038 2053 3038 1478 
Q 3038 884 2653 398 
Q 2269 -88 1613 -88 
Q 944 -88 594 467 
Q 244 1022 244 1819 
Q 244 2438 425 2973 
Q 606 3509 806 3775 
Q 1006 4041 1268 4162 
Q 1531 4284 2197 4291 
Q 2675 4297 2775 4319 
Q 2875 4341 2966 4444 
L 3088 4444 
Q 2984 4138 2837 4006 
Q 2691 3875 2522 3829 
Q 2353 3784 1919 3772 
Q 1450 3759 1270 3701 
Q 1091 3644 897 3420 
Q 703 3197 595 2834 
Q 488 2472 469 2044 
z
M 1575 2734 
Q 1263 2734 1063 2475 
Q 863 2216 863 1659 
Q 863 906 1131 518 
Q 1400 131 1753 131 
Q 2078 131 2264 401 
Q 2450 672 2450 1266 
Q 2450 1897 2206 2315 
Q 1963 2734 1575 2734 
z
" transform="scale(0.015625)"/>
       <path id="TimesNewRomanPSMT-446" d="M 3281 116 
L 3281 -794 
L 3166 -794 
Q 3156 -428 2926 -214 
Q 2697 0 2094 0 
L 144 0 
L 144 116 
Q 422 116 500 217 
Q 578 319 578 672 
L 578 2191 
Q 578 2525 543 2586 
Q 509 2647 437 2695 
Q 366 2744 144 2744 
L 144 2863 
L 1528 2863 
L 1528 2744 
Q 1319 2744 1247 2701 
Q 1175 2659 1134 2596 
Q 1094 2534 1094 2191 
L 1094 575 
Q 1094 303 1142 253 
Q 1191 203 1453 203 
L 1959 203 
Q 2250 203 2290 256 
Q 2331 309 2331 600 
L 2331 2191 
Q 2331 2488 2300 2573 
Q 2269 2659 2178 2701 
Q 2088 2744 1897 2744 
L 1897 2863 
L 3281 2863 
L 3281 2744 
Q 3072 2744 3000 2701 
Q 2928 2659 2887 2596 
Q 2847 2534 2847 2191 
L 2847 719 
Q 2847 316 2919 222 
Q 2991 128 3281 116 
z
" transform="scale(0.015625)"/>
      </defs>
      <use xlink:href="#TimesNewRomanPSMT-41a"/>
      <use xlink:href="#TimesNewRomanPSMT-43e" x="61.699219"/>
      <use xlink:href="#TimesNewRomanPSMT-43b" x="110.324219"/>
      <use xlink:href="#TimesNewRomanPSMT-438" x="160.226562"/>
      <use xlink:href="#TimesNewRomanPSMT-447" x="213.742188"/>
      <use xlink:href="#TimesNewRomanPSMT-435" x="264.035156"/>
      <use xlink:href="#TimesNewRomanPSMT-441" x="310.919922"/>
      <use xlink:href="#TimesNewRomanPSMT-442" x="355.304688"/>
      <use xlink:href="#TimesNewRomanPSMT-432" x="399.005859"/>
      <use xlink:href="#TimesNewRomanPSMT-43e" x="445.597656"/>
      <use xlink:href="#TimesNewRomanPSMT-20" x="495.597656"/>
      <use xlink:href="#TimesNewRomanPSMT-441" x="520.597656"/>
      <use xlink:href="#TimesNewRomanPSMT-442" x="564.982422"/>
      <use xlink:href="#TimesNewRomanPSMT-440" x="609.933594"/>
      <use xlink:href="#TimesNewRomanPSMT-43e" x="659.933594"/>
      <use xlink:href="#TimesNewRomanPSMT-43a" x="709.933594"/>
      <use xlink:href="#TimesNewRomanPSMT-20" x="758.517578"/>
      <use xlink:href="#TimesNewRomanPSMT-432" x="783.517578"/>
      <use xlink:href="#TimesNewRomanPSMT-20" x="830.734375"/>
      <use xlink:href="#TimesNewRomanPSMT-442" x="855.734375"/>
      <use xlink:href="#TimesNewRomanPSMT-430" x="900.685547"/>
      <use xlink:href="#TimesNewRomanPSMT-431" x="945.070312"/>
      <use xlink:href="#TimesNewRomanPSMT-43b" x="993.449219"/>
      <use xlink:href="#TimesNewRomanPSMT-438" x="1043.351562"/>
      <use xlink:href="#TimesNewRomanPSMT-446" x="1096.867188"/>
      <use xlink:href="#TimesNewRomanPSMT-435" x="1150.382812"/>
     </g>
    </g>
   </g>
   <g id="matplotlib.axis_2">
    <g id="ytick_1">
     <g id="line2d_9">
      <defs>
       <path id="mba901e8938" d="M 0 0 
L -3.5 0 
" style="stroke: #000000; stroke-width: 0.8"/>
      </defs>
      <g>
       <use xlink:href="#mba901e8938" x="60.14" y="372.866658" style="stroke: #000000; stroke-width: 0.8"/>
      </g>
     </g>
     <g id="text_10">
      <!-- 50 -->
      <g transform="translate(39.14 377.727283) scale(0.14 -0.14)">
       <use xlink:href="#TimesNewRomanPSMT-35"/>
       <use xlink:href="#TimesNewRomanPSMT-30" x="50"/>
      </g>
     </g>
    </g>
    <g id="ytick_2">
     <g id="line2d_10">
      <g>
       <use xlink:href="#mba901e8938" x="60.14" y="292.772392" style="stroke: #000000; stroke-width: 0.8"/>
      </g>
     </g>
     <g id="text_11">
      <!-- 100 -->
      <g transform="translate(32.14 297.633017) scale(0.14 -0.14)">
       <use xlink:href="#TimesNewRomanPSMT-31"/>
       <use xlink:href="#TimesNewRomanPSMT-30" x="50"/>
       <use xlink:href="#TimesNewRomanPSMT-30" x="100"/>
      </g>
     </g>
    </g>
    <g id="ytick_3">
     <g id="line2d_11">
      <g>
       <use xlink:href="#mba901e8938" x="60.14" y="212.678127" style="stroke: #000000; stroke-width: 0.8"/>
      </g>
     </g>
     <g id="text_12">
      <!-- 150 -->
      <g transform="translate(32.14 217.538752) scale(0.14 -0.14)">
       <use xlink:href="#TimesNewRomanPSMT-31"/>
       <use xlink:href="#TimesNewRomanPSMT-35" x="50"/>
       <use xlink:href="#TimesNewRomanPSMT-30" x="100"/>
      </g>
     </g>
    </g>
    <g id="ytick_4">
     <g id="line2d_12">
      <g>
       <use xlink:href="#mba901e8938" x="60.14" y="132.583862" style="stroke: #000000; stroke-width: 0.8"/>
      </g>
     </g>
     <g id="text_13">
      <!-- 200 -->
      <g transform="translate(32.14 137.444487) scale(0.14 -0.14)">
       <use xlink:href="#TimesNewRomanPSMT-32"/>
       <use xlink:href="#TimesNewRomanPSMT-30" x="50"/>
       <use xlink:href="#TimesNewRomanPSMT-30" x="100"/>
      </g>
     </g>
    </g>
    <g id="ytick_5">
     <g id="line2d_13">
      <g>
       <use xlink:href="#mba901e8938" x="60.14" y="52.489596" style="stroke: #000000; stroke-width: 0.8"/>
      </g>
     </g>
     <g id="text_14">
      <!-- 250 -->
      <g transform="translate(32.14 57.350221) scale(0.14 -0.14)">
       <use xlink:href="#TimesNewRomanPSMT-32"/>
       <use xlink:href="#TimesNewRomanPSMT-35" x="50"/>
       <use xlink:href="#TimesNewRomanPSMT-30" x="100"/>
      </g>
     </g>
    </g>
    <g id="text_15">
     <!-- Время выполнения запроса (миллисекунды) -->
     <g transform="translate(25.119063 365.620156) rotate(-90) scale(0.14 -0.14)">
      <defs>
       <path id="TimesNewRomanPSMT-412" d="M 2956 2163 
Q 3397 2069 3616 1863 
Q 3919 1575 3919 1159 
Q 3919 844 3719 555 
Q 3519 266 3170 133 
Q 2822 0 2106 0 
L 106 0 
L 106 116 
L 266 116 
Q 531 116 647 284 
Q 719 394 719 750 
L 719 3488 
Q 719 3881 628 3984 
Q 506 4122 266 4122 
L 106 4122 
L 106 4238 
L 1938 4238 
Q 2450 4238 2759 4163 
Q 3228 4050 3475 3764 
Q 3722 3478 3722 3106 
Q 3722 2788 3528 2536 
Q 3334 2284 2956 2163 
z
M 1319 2331 
Q 1434 2309 1582 2298 
Q 1731 2288 1909 2288 
Q 2366 2288 2595 2386 
Q 2825 2484 2947 2687 
Q 3069 2891 3069 3131 
Q 3069 3503 2766 3765 
Q 2463 4028 1881 4028 
Q 1569 4028 1319 3959 
L 1319 2331 
z
M 1319 306 
Q 1681 222 2034 222 
Q 2600 222 2897 476 
Q 3194 731 3194 1106 
Q 3194 1353 3059 1581 
Q 2925 1809 2622 1940 
Q 2319 2072 1872 2072 
Q 1678 2072 1540 2065 
Q 1403 2059 1319 2044 
L 1319 306 
z
" transform="scale(0.015625)"/>
       <path id="TimesNewRomanPSMT-43c" d="M 2050 747 
L 2944 2863 
L 3909 2863 
L 3909 2744 
Q 3697 2744 3626 2701 
Q 3556 2659 3515 2596 
Q 3475 2534 3475 2191 
L 3475 672 
Q 3475 375 3504 289 
Q 3534 203 3626 159 
Q 3719 116 3909 116 
L 3909 0 
L 2525 0 
L 2525 116 
Q 2781 116 2868 211 
Q 2956 306 2956 672 
L 2956 2394 
L 1944 0 
L 1834 0 
L 803 2394 
L 803 672 
Q 803 375 834 289 
Q 866 203 956 159 
Q 1047 116 1238 116 
L 1238 0 
L 144 0 
L 144 116 
Q 422 116 500 217 
Q 578 319 578 672 
L 578 2191 
Q 578 2525 543 2586 
Q 509 2647 437 2695 
Q 366 2744 144 2744 
L 144 2863 
L 1150 2863 
L 2050 747 
z
" transform="scale(0.015625)"/>
       <path id="TimesNewRomanPSMT-44f" d="M 2800 2863 
L 2800 2744 
Q 2606 2744 2514 2691 
Q 2422 2638 2394 2556 
Q 2366 2475 2366 2191 
L 2366 672 
Q 2366 400 2391 314 
Q 2416 228 2511 172 
Q 2606 116 2800 116 
L 2800 0 
L 1416 0 
L 1416 116 
Q 1675 116 1762 211 
Q 1850 306 1850 672 
L 1850 1294 
L 1722 1291 
Q 1694 1291 1622 1294 
L 709 0 
L -3 0 
L -3 116 
Q 153 116 214 158 
Q 275 200 441 434 
L 1109 1378 
Q 391 1628 391 2144 
Q 391 2434 648 2648 
Q 906 2863 1528 2863 
L 2800 2863 
z
M 1850 2625 
Q 1728 2659 1619 2659 
Q 1303 2659 1147 2503 
Q 991 2347 991 2131 
Q 991 1856 1212 1675 
Q 1434 1494 1772 1494 
Q 1806 1494 1850 1500 
L 1850 2625 
z
" transform="scale(0.015625)"/>
       <path id="TimesNewRomanPSMT-44b" d="M 2716 2744 
L 2716 2863 
L 4156 2863 
L 4156 2744 
Q 3966 2744 3878 2703 
Q 3791 2663 3758 2578 
Q 3725 2494 3725 2191 
L 3725 672 
Q 3725 378 3753 292 
Q 3781 206 3873 161 
Q 3966 116 4156 116 
L 4156 0 
L 2716 0 
L 2716 116 
Q 2959 125 3032 148 
Q 3106 172 3156 269 
Q 3206 366 3206 672 
L 3206 2191 
Q 3206 2494 3172 2581 
Q 3138 2669 3052 2705 
Q 2966 2741 2716 2744 
z
M 1091 1588 
L 1447 1594 
Q 2722 1594 2722 806 
Q 2722 441 2411 220 
Q 2100 0 1516 0 
L 141 0 
L 141 116 
Q 419 116 497 217 
Q 575 319 575 672 
L 575 2191 
Q 575 2525 540 2586 
Q 506 2647 434 2695 
Q 363 2744 141 2744 
L 141 2863 
L 1638 2863 
L 1638 2744 
Q 1328 2744 1256 2708 
Q 1184 2672 1137 2614 
Q 1091 2556 1091 2191 
L 1091 1588 
z
M 1091 247 
Q 1256 203 1422 203 
Q 1734 203 1929 368 
Q 2125 534 2125 788 
Q 2125 1388 1291 1388 
Q 1219 1388 1091 1384 
L 1091 247 
z
" transform="scale(0.015625)"/>
       <path id="TimesNewRomanPSMT-43f" d="M 2331 2659 
L 1094 2659 
L 1094 672 
Q 1094 341 1128 277 
Q 1163 213 1236 164 
Q 1309 116 1528 116 
L 1528 0 
L 144 0 
L 144 116 
Q 422 116 500 217 
Q 578 319 578 672 
L 578 2191 
Q 578 2525 543 2586 
Q 509 2647 437 2695 
Q 366 2744 144 2744 
L 144 2863 
L 3281 2863 
L 3281 2744 
Q 3072 2744 3000 2701 
Q 2928 2659 2887 2596 
Q 2847 2534 2847 2191 
L 2847 672 
Q 2847 341 2881 277 
Q 2916 213 2989 164 
Q 3063 116 3281 116 
L 3281 0 
L 1897 0 
L 1897 116 
Q 2156 116 2243 211 
Q 2331 306 2331 672 
L 2331 2659 
z
" transform="scale(0.015625)"/>
       <path id="TimesNewRomanPSMT-43d" d="M 1094 1584 
L 2331 1584 
L 2331 2191 
Q 2331 2463 2309 2545 
Q 2288 2628 2202 2686 
Q 2116 2744 1897 2744 
L 1897 2863 
L 3281 2863 
L 3281 2744 
Q 3088 2744 2998 2700 
Q 2909 2656 2878 2573 
Q 2847 2491 2847 2191 
L 2847 672 
Q 2847 400 2870 312 
Q 2894 225 2984 170 
Q 3075 116 3281 116 
L 3281 0 
L 1897 0 
L 1897 116 
Q 2156 116 2243 211 
Q 2331 306 2331 672 
L 2331 1381 
L 1094 1381 
L 1094 672 
Q 1094 400 1117 312 
Q 1141 225 1231 170 
Q 1322 116 1528 116 
L 1528 0 
L 144 0 
L 144 116 
Q 422 116 500 217 
Q 578 319 578 672 
L 578 2191 
Q 578 2463 554 2550 
Q 531 2638 440 2691 
Q 350 2744 144 2744 
L 144 2863 
L 1528 2863 
L 1528 2744 
Q 1334 2744 1245 2700 
Q 1156 2656 1125 2573 
Q 1094 2491 1094 2191 
L 1094 1584 
z
" transform="scale(0.015625)"/>
       <path id="TimesNewRomanPSMT-437" d="M 263 1966 
L 263 2863 
L 394 2863 
Q 450 2813 519 2813 
Q 572 2813 750 2863 
Q 1047 2947 1234 2947 
Q 1647 2947 1923 2756 
Q 2200 2566 2200 2250 
Q 2200 1766 1466 1547 
Q 2322 1369 2322 744 
Q 2322 416 2047 164 
Q 1772 -88 1247 -88 
Q 903 -88 642 35 
Q 381 159 75 453 
L 156 534 
Q 669 138 1128 138 
Q 1391 138 1559 316 
Q 1728 494 1728 778 
Q 1728 1400 925 1438 
L 925 1619 
Q 1303 1619 1473 1820 
Q 1644 2022 1644 2253 
Q 1644 2456 1498 2609 
Q 1353 2763 1113 2763 
Q 556 2763 375 1966 
L 263 1966 
z
" transform="scale(0.015625)"/>
       <path id="TimesNewRomanPSMT-28" d="M 1988 -1253 
L 1988 -1369 
Q 1516 -1131 1200 -813 
Q 750 -359 506 256 
Q 263 872 263 1534 
Q 263 2503 741 3301 
Q 1219 4100 1988 4444 
L 1988 4313 
Q 1603 4100 1356 3731 
Q 1109 3363 987 2797 
Q 866 2231 866 1616 
Q 866 947 969 400 
Q 1050 -31 1165 -292 
Q 1281 -553 1476 -793 
Q 1672 -1034 1988 -1253 
z
" transform="scale(0.015625)"/>
       <path id="TimesNewRomanPSMT-443" d="M 38 2863 
L 1372 2863 
L 1372 2747 
L 1306 2747 
Q 1166 2747 1095 2686 
Q 1025 2625 1025 2534 
Q 1025 2413 1128 2197 
L 1825 753 
L 2466 2334 
Q 2519 2463 2519 2588 
Q 2519 2644 2497 2672 
Q 2472 2706 2419 2726 
Q 2366 2747 2231 2747 
L 2231 2863 
L 3163 2863 
L 3163 2747 
Q 3047 2734 2984 2696 
Q 2922 2659 2847 2556 
Q 2819 2513 2741 2316 
L 1575 -541 
Q 1406 -956 1132 -1168 
Q 859 -1381 606 -1381 
Q 422 -1381 303 -1275 
Q 184 -1169 184 -1031 
Q 184 -900 270 -820 
Q 356 -741 506 -741 
Q 609 -741 788 -809 
Q 913 -856 944 -856 
Q 1038 -856 1148 -759 
Q 1259 -663 1372 -384 
L 1575 113 
L 547 2272 
Q 500 2369 397 2513 
Q 319 2622 269 2659 
Q 197 2709 38 2747 
L 38 2863 
z
" transform="scale(0.015625)"/>
       <path id="TimesNewRomanPSMT-434" d="M 591 2863 
L 3116 2863 
L 3116 2744 
Q 2903 2744 2833 2701 
Q 2763 2659 2722 2596 
Q 2681 2534 2681 2191 
L 2681 775 
Q 2681 328 2757 226 
Q 2834 125 3116 116 
L 3116 -794 
L 2997 -794 
Q 2984 -538 2870 -347 
Q 2756 -156 2553 -78 
Q 2350 0 1953 0 
L 1216 0 
Q 872 0 678 -61 
Q 484 -122 354 -315 
Q 225 -509 197 -794 
L 81 -794 
L 81 116 
Q 338 125 547 319 
Q 756 513 915 1078 
Q 1075 1644 1075 2191 
Q 1075 2728 591 2744 
L 591 2863 
z
M 1281 2659 
L 1281 2488 
Q 1281 953 725 203 
L 1788 203 
Q 2075 203 2119 251 
Q 2163 300 2163 609 
L 2163 2659 
L 1281 2659 
z
" transform="scale(0.015625)"/>
       <path id="TimesNewRomanPSMT-29" d="M 144 4313 
L 144 4444 
Q 619 4209 934 3891 
Q 1381 3434 1625 2820 
Q 1869 2206 1869 1541 
Q 1869 572 1392 -226 
Q 916 -1025 144 -1369 
L 144 -1253 
Q 528 -1038 776 -670 
Q 1025 -303 1145 264 
Q 1266 831 1266 1447 
Q 1266 2113 1163 2663 
Q 1084 3094 967 3353 
Q 850 3613 656 3853 
Q 463 4094 144 4313 
z
" transform="scale(0.015625)"/>
      </defs>
      <use xlink:href="#TimesNewRomanPSMT-412"/>
      <use xlink:href="#TimesNewRomanPSMT-440" x="66.699219"/>
      <use xlink:href="#TimesNewRomanPSMT-435" x="116.699219"/>
      <use xlink:href="#TimesNewRomanPSMT-43c" x="161.083984"/>
      <use xlink:href="#TimesNewRomanPSMT-44f" x="224.365234"/>
      <use xlink:href="#TimesNewRomanPSMT-20" x="270.361328"/>
      <use xlink:href="#TimesNewRomanPSMT-432" x="295.361328"/>
      <use xlink:href="#TimesNewRomanPSMT-44b" x="342.578125"/>
      <use xlink:href="#TimesNewRomanPSMT-43f" x="409.765625"/>
      <use xlink:href="#TimesNewRomanPSMT-43e" x="463.28125"/>
      <use xlink:href="#TimesNewRomanPSMT-43b" x="511.90625"/>
      <use xlink:href="#TimesNewRomanPSMT-43d" x="561.808594"/>
      <use xlink:href="#TimesNewRomanPSMT-435" x="615.324219"/>
      <use xlink:href="#TimesNewRomanPSMT-43d" x="659.708984"/>
      <use xlink:href="#TimesNewRomanPSMT-438" x="713.224609"/>
      <use xlink:href="#TimesNewRomanPSMT-44f" x="766.740234"/>
      <use xlink:href="#TimesNewRomanPSMT-20" x="812.736328"/>
      <use xlink:href="#TimesNewRomanPSMT-437" x="837.736328"/>
      <use xlink:href="#TimesNewRomanPSMT-430" x="877.238281"/>
      <use xlink:href="#TimesNewRomanPSMT-43f" x="920.248047"/>
      <use xlink:href="#TimesNewRomanPSMT-440" x="973.763672"/>
      <use xlink:href="#TimesNewRomanPSMT-43e" x="1023.763672"/>
      <use xlink:href="#TimesNewRomanPSMT-441" x="1076.263672"/>
      <use xlink:href="#TimesNewRomanPSMT-430" x="1121.898438"/>
      <use xlink:href="#TimesNewRomanPSMT-20" x="1166.283203"/>
      <use xlink:href="#TimesNewRomanPSMT-28" x="1191.283203"/>
      <use xlink:href="#TimesNewRomanPSMT-43c" x="1224.583984"/>
      <use xlink:href="#TimesNewRomanPSMT-438" x="1287.865234"/>
      <use xlink:href="#TimesNewRomanPSMT-43b" x="1341.380859"/>
      <use xlink:href="#TimesNewRomanPSMT-43b" x="1391.283203"/>
      <use xlink:href="#TimesNewRomanPSMT-438" x="1441.185547"/>
      <use xlink:href="#TimesNewRomanPSMT-441" x="1494.701172"/>
      <use xlink:href="#TimesNewRomanPSMT-435" x="1540.335938"/>
      <use xlink:href="#TimesNewRomanPSMT-43a" x="1584.720703"/>
      <use xlink:href="#TimesNewRomanPSMT-443" x="1631.929688"/>
      <use xlink:href="#TimesNewRomanPSMT-43d" x="1681.929688"/>
      <use xlink:href="#TimesNewRomanPSMT-434" x="1735.445312"/>
      <use xlink:href="#TimesNewRomanPSMT-44b" x="1786.324219"/>
      <use xlink:href="#TimesNewRomanPSMT-29" x="1853.511719"/>
     </g>
    </g>
   </g>
   <g id="line2d_14">
    <path d="M 60.783453 425.456552 
L 94.649405 403.882837 
L 128.515358 382.309122 
L 162.38131 360.735407 
L 196.247262 339.161692 
L 230.113215 317.587978 
L 263.979167 296.014263 
L 297.845119 274.440548 
L 331.711072 252.866833 
L 365.577024 231.293118 
L 399.442976 209.719403 
L 433.308928 188.145688 
L 467.174881 166.571973 
L 501.040833 144.998258 
L 534.906785 123.424543 
L 568.772738 101.850828 
L 602.63869 80.277113 
L 636.504642 58.703398 
L 670.370595 37.129683 
L 704.236547 15.555968 
" clip-path="url(#p65e8c65b6c)" style="fill: none; stroke: #000000; stroke-width: 1.5; stroke-linecap: square"/>
   </g>
   <g id="line2d_15">
    <path d="M 60.783453 447.66382 
L 94.649405 429.891407 
L 128.515358 412.118995 
L 162.38131 394.346582 
L 196.247262 376.574169 
L 230.113215 358.801756 
L 263.979167 341.029343 
L 297.845119 323.25693 
L 331.711072 305.484518 
L 365.577024 287.712105 
L 399.442976 269.939692 
L 433.308928 252.167279 
L 467.174881 234.394866 
L 501.040833 216.622453 
L 534.906785 198.850041 
L 568.772738 181.077628 
L 602.63869 163.305215 
L 636.504642 145.532802 
L 670.370595 127.760389 
L 704.236547 109.987976 
" clip-path="url(#p65e8c65b6c)" style="fill: none; stroke-dasharray: 5.55,2.4; stroke-dashoffset: 0; stroke: #000000; stroke-width: 1.5"/>
   </g>
   <g id="patch_3">
    <path d="M 60.14 451.96 
L 60.14 15.12 
" style="fill: none; stroke: #000000; stroke-width: 0.8; stroke-linejoin: miter; stroke-linecap: square"/>
   </g>
   <g id="patch_4">
    <path d="M 704.88 451.96 
L 704.88 15.12 
" style="fill: none; stroke: #000000; stroke-width: 0.8; stroke-linejoin: miter; stroke-linecap: square"/>
   </g>
   <g id="patch_5">
    <path d="M 60.14 451.96 
L 704.88 451.96 
" style="fill: none; stroke: #000000; stroke-width: 0.8; stroke-linejoin: miter; stroke-linecap: square"/>
   </g>
   <g id="patch_6">
    <path d="M 60.14 15.12 
L 704.88 15.12 
" style="fill: none; stroke: #000000; stroke-width: 0.8; stroke-linejoin: miter; stroke-linecap: square"/>
   </g>
   <g id="legend_1">
    <g id="patch_7">
     <path d="M 67.14 79.75125 
L 418.760313 79.75125 
Q 420.760313 79.75125 420.760313 77.75125 
L 420.760313 22.12 
Q 420.760313 20.12 418.760313 20.12 
L 67.14 20.12 
Q 65.14 20.12 65.14 22.12 
L 65.14 77.75125 
Q 65.14 79.75125 67.14 79.75125 
z
" style="fill: #ffffff; opacity: 0.8; stroke: #cccccc; stroke-linejoin: miter"/>
    </g>
    <g id="PathCollection_3">
     <g>
      <use xlink:href="#mf66df879dd" x="79.14" y="28.495" style="stroke: #000000"/>
     </g>
    </g>
    <g id="text_16">
     <!-- Индекс отсуствует -->
     <g transform="translate(97.14 31.12) scale(0.1 -0.1)">
      <defs>
       <path id="TimesNewRomanPSMT-418" d="M 3294 3538 
Q 3294 3919 3170 4020 
Q 3047 4122 2672 4122 
L 2672 4238 
L 4506 4238 
L 4506 4122 
Q 4113 4109 4003 3996 
Q 3894 3884 3894 3466 
L 3894 772 
Q 3894 353 4003 240 
Q 4113 128 4506 116 
L 4506 0 
L 2672 0 
L 2672 116 
Q 3075 128 3184 242 
Q 3294 356 3294 772 
L 3294 3203 
L 1328 684 
Q 1331 413 1364 320 
Q 1397 228 1517 175 
Q 1638 122 1944 116 
L 1944 0 
L 116 0 
L 116 116 
Q 509 128 618 240 
Q 728 353 728 772 
L 728 3466 
Q 728 3884 618 3996 
Q 509 4109 116 4122 
L 116 4238 
L 1944 4238 
L 1944 4122 
Q 1547 4109 1437 3996 
Q 1328 3884 1328 3466 
L 1328 1025 
L 3294 3538 
z
" transform="scale(0.015625)"/>
      </defs>
      <use xlink:href="#TimesNewRomanPSMT-418"/>
      <use xlink:href="#TimesNewRomanPSMT-43d" x="72.216797"/>
      <use xlink:href="#TimesNewRomanPSMT-434" x="125.732422"/>
      <use xlink:href="#TimesNewRomanPSMT-435" x="176.611328"/>
      <use xlink:href="#TimesNewRomanPSMT-43a" x="220.996094"/>
      <use xlink:href="#TimesNewRomanPSMT-441" x="267.080078"/>
      <use xlink:href="#TimesNewRomanPSMT-20" x="311.464844"/>
      <use xlink:href="#TimesNewRomanPSMT-43e" x="336.464844"/>
      <use xlink:href="#TimesNewRomanPSMT-442" x="385.089844"/>
      <use xlink:href="#TimesNewRomanPSMT-441" x="430.041016"/>
      <use xlink:href="#TimesNewRomanPSMT-443" x="473.050781"/>
      <use xlink:href="#TimesNewRomanPSMT-441" x="523.050781"/>
      <use xlink:href="#TimesNewRomanPSMT-442" x="567.435547"/>
      <use xlink:href="#TimesNewRomanPSMT-432" x="611.136719"/>
      <use xlink:href="#TimesNewRomanPSMT-443" x="654.978516"/>
      <use xlink:href="#TimesNewRomanPSMT-435" x="703.603516"/>
      <use xlink:href="#TimesNewRomanPSMT-442" x="747.988281"/>
     </g>
    </g>
    <g id="PathCollection_4">
     <g>
      <use xlink:href="#ma19c0f595f" x="79.14" y="42.652812" style="stroke: #000000"/>
     </g>
    </g>
    <g id="text_17">
     <!-- Индекс присутствует -->
     <g transform="translate(97.14 45.277812) scale(0.1 -0.1)">
      <use xlink:href="#TimesNewRomanPSMT-418"/>
      <use xlink:href="#TimesNewRomanPSMT-43d" x="72.216797"/>
      <use xlink:href="#TimesNewRomanPSMT-434" x="125.732422"/>
      <use xlink:href="#TimesNewRomanPSMT-435" x="176.611328"/>
      <use xlink:href="#TimesNewRomanPSMT-43a" x="220.996094"/>
      <use xlink:href="#TimesNewRomanPSMT-441" x="267.080078"/>
      <use xlink:href="#TimesNewRomanPSMT-20" x="311.464844"/>
      <use xlink:href="#TimesNewRomanPSMT-43f" x="336.464844"/>
      <use xlink:href="#TimesNewRomanPSMT-440" x="389.980469"/>
      <use xlink:href="#TimesNewRomanPSMT-438" x="439.980469"/>
      <use xlink:href="#TimesNewRomanPSMT-441" x="493.496094"/>
      <use xlink:href="#TimesNewRomanPSMT-443" x="536.505859"/>
      <use xlink:href="#TimesNewRomanPSMT-442" x="586.505859"/>
      <use xlink:href="#TimesNewRomanPSMT-441" x="631.457031"/>
      <use xlink:href="#TimesNewRomanPSMT-442" x="675.841797"/>
      <use xlink:href="#TimesNewRomanPSMT-432" x="719.542969"/>
      <use xlink:href="#TimesNewRomanPSMT-443" x="763.384766"/>
      <use xlink:href="#TimesNewRomanPSMT-435" x="812.009766"/>
      <use xlink:href="#TimesNewRomanPSMT-442" x="856.394531"/>
     </g>
    </g>
    <g id="line2d_16">
     <path d="M 69.14 55.935625 
L 79.14 55.935625 
L 89.14 55.935625 
" style="fill: none; stroke: #000000; stroke-width: 1.5; stroke-linecap: square"/>
    </g>
    <g id="text_18">
     <!-- Функция зависимости времени выполнения запроса от строк (без индекса) -->
     <g transform="translate(97.14 59.435625) scale(0.1 -0.1)">
      <defs>
       <path id="TimesNewRomanPSMT-424" d="M 3444 0 
L 1616 0 
L 1616 116 
Q 1975 122 2098 212 
Q 2222 303 2228 588 
Q 1172 588 705 1031 
Q 238 1475 238 2141 
Q 238 2641 514 2994 
Q 791 3347 1197 3483 
Q 1603 3619 2228 3619 
Q 2222 3881 2147 3965 
Q 2072 4050 1980 4083 
Q 1888 4116 1616 4122 
L 1616 4238 
L 3444 4238 
L 3444 4122 
Q 3075 4109 2959 4011 
Q 2844 3913 2828 3619 
Q 3503 3619 3890 3472 
Q 4278 3325 4550 2984 
Q 4822 2644 4822 2141 
Q 4822 1494 4369 1041 
Q 3916 588 2828 588 
Q 2838 306 2958 214 
Q 3078 122 3444 116 
L 3444 0 
z
M 2828 819 
Q 3288 819 3561 939 
Q 3834 1059 4014 1371 
Q 4194 1684 4194 2144 
Q 4194 2575 4012 2873 
Q 3831 3172 3557 3280 
Q 3284 3388 2828 3388 
L 2828 819 
z
M 2228 819 
L 2228 3388 
Q 1744 3388 1481 3270 
Q 1219 3153 1042 2872 
Q 866 2591 866 2144 
Q 866 1653 1073 1328 
Q 1281 1003 1562 911 
Q 1844 819 2228 819 
z
" transform="scale(0.015625)"/>
      </defs>
      <use xlink:href="#TimesNewRomanPSMT-424"/>
      <use xlink:href="#TimesNewRomanPSMT-443" x="79.003906"/>
      <use xlink:href="#TimesNewRomanPSMT-43d" x="129.003906"/>
      <use xlink:href="#TimesNewRomanPSMT-43a" x="182.519531"/>
      <use xlink:href="#TimesNewRomanPSMT-446" x="231.103516"/>
      <use xlink:href="#TimesNewRomanPSMT-438" x="284.619141"/>
      <use xlink:href="#TimesNewRomanPSMT-44f" x="338.134766"/>
      <use xlink:href="#TimesNewRomanPSMT-20" x="384.130859"/>
      <use xlink:href="#TimesNewRomanPSMT-437" x="409.130859"/>
      <use xlink:href="#TimesNewRomanPSMT-430" x="448.632812"/>
      <use xlink:href="#TimesNewRomanPSMT-432" x="493.017578"/>
      <use xlink:href="#TimesNewRomanPSMT-438" x="540.234375"/>
      <use xlink:href="#TimesNewRomanPSMT-441" x="593.75"/>
      <use xlink:href="#TimesNewRomanPSMT-438" x="638.134766"/>
      <use xlink:href="#TimesNewRomanPSMT-43c" x="691.650391"/>
      <use xlink:href="#TimesNewRomanPSMT-43e" x="754.931641"/>
      <use xlink:href="#TimesNewRomanPSMT-441" x="807.431641"/>
      <use xlink:href="#TimesNewRomanPSMT-442" x="851.816406"/>
      <use xlink:href="#TimesNewRomanPSMT-438" x="895.517578"/>
      <use xlink:href="#TimesNewRomanPSMT-20" x="949.033203"/>
      <use xlink:href="#TimesNewRomanPSMT-432" x="974.033203"/>
      <use xlink:href="#TimesNewRomanPSMT-440" x="1021.25"/>
      <use xlink:href="#TimesNewRomanPSMT-435" x="1071.25"/>
      <use xlink:href="#TimesNewRomanPSMT-43c" x="1115.634766"/>
      <use xlink:href="#TimesNewRomanPSMT-435" x="1178.916016"/>
      <use xlink:href="#TimesNewRomanPSMT-43d" x="1223.300781"/>
      <use xlink:href="#TimesNewRomanPSMT-438" x="1276.816406"/>
      <use xlink:href="#TimesNewRomanPSMT-20" x="1330.332031"/>
      <use xlink:href="#TimesNewRomanPSMT-432" x="1355.332031"/>
      <use xlink:href="#TimesNewRomanPSMT-44b" x="1402.548828"/>
      <use xlink:href="#TimesNewRomanPSMT-43f" x="1469.736328"/>
      <use xlink:href="#TimesNewRomanPSMT-43e" x="1523.251953"/>
      <use xlink:href="#TimesNewRomanPSMT-43b" x="1571.876953"/>
      <use xlink:href="#TimesNewRomanPSMT-43d" x="1621.779297"/>
      <use xlink:href="#TimesNewRomanPSMT-435" x="1675.294922"/>
      <use xlink:href="#TimesNewRomanPSMT-43d" x="1719.679688"/>
      <use xlink:href="#TimesNewRomanPSMT-438" x="1773.195312"/>
      <use xlink:href="#TimesNewRomanPSMT-44f" x="1826.710938"/>
      <use xlink:href="#TimesNewRomanPSMT-20" x="1872.707031"/>
      <use xlink:href="#TimesNewRomanPSMT-437" x="1897.707031"/>
      <use xlink:href="#TimesNewRomanPSMT-430" x="1937.208984"/>
      <use xlink:href="#TimesNewRomanPSMT-43f" x="1980.21875"/>
      <use xlink:href="#TimesNewRomanPSMT-440" x="2033.734375"/>
      <use xlink:href="#TimesNewRomanPSMT-43e" x="2083.734375"/>
      <use xlink:href="#TimesNewRomanPSMT-441" x="2136.234375"/>
      <use xlink:href="#TimesNewRomanPSMT-430" x="2181.869141"/>
      <use xlink:href="#TimesNewRomanPSMT-20" x="2226.253906"/>
      <use xlink:href="#TimesNewRomanPSMT-43e" x="2251.253906"/>
      <use xlink:href="#TimesNewRomanPSMT-442" x="2299.878906"/>
      <use xlink:href="#TimesNewRomanPSMT-20" x="2343.580078"/>
      <use xlink:href="#TimesNewRomanPSMT-441" x="2368.580078"/>
      <use xlink:href="#TimesNewRomanPSMT-442" x="2412.964844"/>
      <use xlink:href="#TimesNewRomanPSMT-440" x="2457.916016"/>
      <use xlink:href="#TimesNewRomanPSMT-43e" x="2507.916016"/>
      <use xlink:href="#TimesNewRomanPSMT-43a" x="2557.916016"/>
      <use xlink:href="#TimesNewRomanPSMT-20" x="2606.5"/>
      <use xlink:href="#TimesNewRomanPSMT-28" x="2631.5"/>
      <use xlink:href="#TimesNewRomanPSMT-431" x="2664.800781"/>
      <use xlink:href="#TimesNewRomanPSMT-435" x="2714.304688"/>
      <use xlink:href="#TimesNewRomanPSMT-437" x="2759.939453"/>
      <use xlink:href="#TimesNewRomanPSMT-20" x="2799.441406"/>
      <use xlink:href="#TimesNewRomanPSMT-438" x="2824.441406"/>
      <use xlink:href="#TimesNewRomanPSMT-43d" x="2877.957031"/>
      <use xlink:href="#TimesNewRomanPSMT-434" x="2931.472656"/>
      <use xlink:href="#TimesNewRomanPSMT-435" x="2982.351562"/>
      <use xlink:href="#TimesNewRomanPSMT-43a" x="3026.736328"/>
      <use xlink:href="#TimesNewRomanPSMT-441" x="3072.820312"/>
      <use xlink:href="#TimesNewRomanPSMT-430" x="3118.455078"/>
      <use xlink:href="#TimesNewRomanPSMT-29" x="3162.839844"/>
     </g>
    </g>
    <g id="line2d_17">
     <path d="M 69.14 70.093437 
L 79.14 70.093437 
L 89.14 70.093437 
" style="fill: none; stroke-dasharray: 5.55,2.4; stroke-dashoffset: 0; stroke: #000000; stroke-width: 1.5"/>
    </g>
    <g id="text_19">
     <!-- Функции зависимости времени выполнения запроса от строк (с индексом) -->
     <g transform="translate(97.14 73.593437) scale(0.1 -0.1)">
      <use xlink:href="#TimesNewRomanPSMT-424"/>
      <use xlink:href="#TimesNewRomanPSMT-443" x="79.003906"/>
      <use xlink:href="#TimesNewRomanPSMT-43d" x="129.003906"/>
      <use xlink:href="#TimesNewRomanPSMT-43a" x="182.519531"/>
      <use xlink:href="#TimesNewRomanPSMT-446" x="231.103516"/>
      <use xlink:href="#TimesNewRomanPSMT-438" x="284.619141"/>
      <use xlink:href="#TimesNewRomanPSMT-438" x="338.134766"/>
      <use xlink:href="#TimesNewRomanPSMT-20" x="391.650391"/>
      <use xlink:href="#TimesNewRomanPSMT-437" x="416.650391"/>
      <use xlink:href="#TimesNewRomanPSMT-430" x="456.152344"/>
      <use xlink:href="#TimesNewRomanPSMT-432" x="500.537109"/>
      <use xlink:href="#TimesNewRomanPSMT-438" x="547.753906"/>
      <use xlink:href="#TimesNewRomanPSMT-441" x="601.269531"/>
      <use xlink:href="#TimesNewRomanPSMT-438" x="645.654297"/>
      <use xlink:href="#TimesNewRomanPSMT-43c" x="699.169922"/>
      <use xlink:href="#TimesNewRomanPSMT-43e" x="762.451172"/>
      <use xlink:href="#TimesNewRomanPSMT-441" x="814.951172"/>
      <use xlink:href="#TimesNewRomanPSMT-442" x="859.335938"/>
      <use xlink:href="#TimesNewRomanPSMT-438" x="903.037109"/>
      <use xlink:href="#TimesNewRomanPSMT-20" x="956.552734"/>
      <use xlink:href="#TimesNewRomanPSMT-432" x="981.552734"/>
      <use xlink:href="#TimesNewRomanPSMT-440" x="1028.769531"/>
      <use xlink:href="#TimesNewRomanPSMT-435" x="1078.769531"/>
      <use xlink:href="#TimesNewRomanPSMT-43c" x="1123.154297"/>
      <use xlink:href="#TimesNewRomanPSMT-435" x="1186.435547"/>
      <use xlink:href="#TimesNewRomanPSMT-43d" x="1230.820312"/>
      <use xlink:href="#TimesNewRomanPSMT-438" x="1284.335938"/>
      <use xlink:href="#TimesNewRomanPSMT-20" x="1337.851562"/>
      <use xlink:href="#TimesNewRomanPSMT-432" x="1362.851562"/>
      <use xlink:href="#TimesNewRomanPSMT-44b" x="1410.068359"/>
      <use xlink:href="#TimesNewRomanPSMT-43f" x="1477.255859"/>
      <use xlink:href="#TimesNewRomanPSMT-43e" x="1530.771484"/>
      <use xlink:href="#TimesNewRomanPSMT-43b" x="1579.396484"/>
      <use xlink:href="#TimesNewRomanPSMT-43d" x="1629.298828"/>
      <use xlink:href="#TimesNewRomanPSMT-435" x="1682.814453"/>
      <use xlink:href="#TimesNewRomanPSMT-43d" x="1727.199219"/>
      <use xlink:href="#TimesNewRomanPSMT-438" x="1780.714844"/>
      <use xlink:href="#TimesNewRomanPSMT-44f" x="1834.230469"/>
      <use xlink:href="#TimesNewRomanPSMT-20" x="1880.226562"/>
      <use xlink:href="#TimesNewRomanPSMT-437" x="1905.226562"/>
      <use xlink:href="#TimesNewRomanPSMT-430" x="1944.728516"/>
      <use xlink:href="#TimesNewRomanPSMT-43f" x="1987.738281"/>
      <use xlink:href="#TimesNewRomanPSMT-440" x="2041.253906"/>
      <use xlink:href="#TimesNewRomanPSMT-43e" x="2091.253906"/>
      <use xlink:href="#TimesNewRomanPSMT-441" x="2143.753906"/>
      <use xlink:href="#TimesNewRomanPSMT-430" x="2189.388672"/>
      <use xlink:href="#TimesNewRomanPSMT-20" x="2233.773438"/>
      <use xlink:href="#TimesNewRomanPSMT-43e" x="2258.773438"/>
      <use xlink:href="#TimesNewRomanPSMT-442" x="2307.398438"/>
      <use xlink:href="#TimesNewRomanPSMT-20" x="2351.099609"/>
      <use xlink:href="#TimesNewRomanPSMT-441" x="2376.099609"/>
      <use xlink:href="#TimesNewRomanPSMT-442" x="2420.484375"/>
      <use xlink:href="#TimesNewRomanPSMT-440" x="2465.435547"/>
      <use xlink:href="#TimesNewRomanPSMT-43e" x="2515.435547"/>
      <use xlink:href="#TimesNewRomanPSMT-43a" x="2565.435547"/>
      <use xlink:href="#TimesNewRomanPSMT-20" x="2614.019531"/>
      <use xlink:href="#TimesNewRomanPSMT-28" x="2639.019531"/>
      <use xlink:href="#TimesNewRomanPSMT-441" x="2672.320312"/>
      <use xlink:href="#TimesNewRomanPSMT-20" x="2716.705078"/>
      <use xlink:href="#TimesNewRomanPSMT-438" x="2741.705078"/>
      <use xlink:href="#TimesNewRomanPSMT-43d" x="2795.220703"/>
      <use xlink:href="#TimesNewRomanPSMT-434" x="2848.736328"/>
      <use xlink:href="#TimesNewRomanPSMT-435" x="2899.615234"/>
      <use xlink:href="#TimesNewRomanPSMT-43a" x="2944"/>
      <use xlink:href="#TimesNewRomanPSMT-441" x="2990.083984"/>
      <use xlink:href="#TimesNewRomanPSMT-43e" x="3034.46875"/>
      <use xlink:href="#TimesNewRomanPSMT-43c" x="3082.59375"/>
      <use xlink:href="#TimesNewRomanPSMT-29" x="3145.875"/>
     </g>
    </g>
   </g>
  </g>
 </g>
 <defs>
  <clipPath id="p65e8c65b6c">
   <rect x="60.14" y="15.12" width="644.74" height="436.84"/>
  </clipPath>
 </defs>
</svg>
